<svg xmlns="http://www.w3.org/2000/svg" viewBox="0 0 128 128" role="img" aria-labelledby="title">
  <title id="title">ContentFlow AI</title>
  <defs>
    <linearGradient id="background" x1="12" y1="10" x2="116" y2="118" gradientUnits="userSpaceOnUse">
      <stop stop-color="#12BCE9"/>
      <stop offset="0.55" stop-color="#2479EF"/>
      <stop offset="1" stop-color="#7651F4"/>
    </linearGradient>
  </defs>
  <rect x="4" y="4" width="120" height="120" rx="25" fill="url(#background)"/>
  <g fill="none" stroke="#fff" stroke-width="6" stroke-linecap="round" stroke-linejoin="round">
    <rect x="32" y="32" width="64" height="64" rx="15"/>
    <path d="M47 32v-9M64 32v-9M81 32v-9M47 105v-9M64 105v-9M81 105v-9M32 47h-9M32 64h-9M32 81h-9M105 47h-9M105 64h-9M105 81h-9"/>
  </g>
  <path fill="#fff" d="M61.2 43.6c.8-2.7 4.7-2.7 5.5 0l2.7 8.8a10 10 0 0 0 6.3 6.3l8.8 2.7c2.7.8 2.7 4.7 0 5.5l-8.8 2.7a10 10 0 0 0-6.3 6.3l-2.7 8.8c-.8 2.7-4.7 2.7-5.5 0l-2.7-8.8a10 10 0 0 0-6.3-6.3l-8.8-2.7c-2.7-.8-2.7-4.7 0-5.5l8.8-2.7a10 10 0 0 0 6.3-6.3l2.7-8.8Z"/>
  <circle cx="84" cy="44" r="4" fill="#fff"/>
</svg>
